<?xml version="1.0" encoding="utf-8"?>
<!-- Generator: Adobe Illustrator 19.1.0, SVG Export Plug-In . SVG Version: 6.00 Build 0)  -->
<svg version="1.1" id="Layer_1" xmlns="http://www.w3.org/2000/svg" xmlns:xlink="http://www.w3.org/1999/xlink" x="0px" y="0px"
	 viewBox="0 0 120 120" style="enable-background:new 0 0 120 120;" xml:space="preserve">
<style type="text/css">
	.st0{fill:#A783FF;}
	.st1{fill:#9966FF;}
	.st2{fill:#3A2960;stroke:#A783FF;stroke-width:7.4562;stroke-miterlimit:10;}
	.st3{fill:#FFFFFF;}
	.st4{fill:#FF3333;}
	.st5{fill:#FF33B6;}
	.st6{fill:#E8E8E8;}
</style>
<g>
	<g>
		<path class="st0" d="M56.1,4.4L35.7,37.9c-0.9,1.4-0.9,3.2-0.1,4.7l18.6,33.5c0.8,1.5,2.4,2.4,4.1,2.4l1.6,0l0.3,0V2.2
			C58.6,2.1,57,2.9,56.1,4.4z"/>
		<path class="st1" d="M84.7,37.9L64,4.4c-0.9-1.4-2.4-2.2-3.8-2.2v76.3l2,0c1.7,0,3.3-0.9,4.1-2.4l18.6-33.4
			C85.7,41.1,85.6,39.3,84.7,37.9z"/>
	</g>
	<circle class="st2" cx="60" cy="40.3" r="9.8"/>
	<circle class="st3" cx="60" cy="40.3" r="9.8"/>
	<g>
		<path class="st4" d="M66.4,82.9c6.3,6.1-4.6,24.2-6,24.2c-1.4,0-12.1-18.4-5.8-24.4c-13.3,5.9,3.6,35.5,5.8,35.5
			C62.5,118.1,79.8,89.1,66.4,82.9z"/>
		<path class="st5" d="M60.4,107.1c1.4,0,12.3-18.1,6-24.2c-1.6-0.8-3.7-1.2-6.3-1.2c-2.3,0-4.1,0.4-5.6,1
			C48.3,88.6,59,107.1,60.4,107.1z"/>
	</g>
	<g>
		<path class="st0" d="M82.1,59.9c-0.5-0.3-1.2-0.4-1.7-0.2c-0.6,0.2-1.1,0.6-1.4,1.1l-8.5,15.9c-0.3,0.5-0.4,1.2-0.2,1.8
			c0.2,0.6,0.6,1.1,1.1,1.4l15.9,8.5c0.3,0.2,0.7,0.3,1.1,0.3c0.6,0,1.2-0.2,1.7-0.7c0.1-0.2,0.3-0.3,0.4-0.5
			C95.7,77.5,92,65.2,82.1,59.9z"/>
		<g>
			<path class="st1" d="M82.1,59.9c-0.5-0.3-1.2-0.4-1.7-0.2c-0.6,0.2-1.1,0.6-1.4,1.1l-8.5,15.9c-0.3,0.5-0.4,1.2-0.2,1.8
				c0,0.1,0.1,0.2,0.1,0.2l19.8-10.8C88.4,64.6,85.7,61.8,82.1,59.9z"/>
		</g>
	</g>
	<g>
		<path class="st0" d="M29.9,87.4c0.1,0.2,0.2,0.4,0.4,0.5c0.4,0.5,1.1,0.7,1.7,0.7c0.4,0,0.7-0.1,1.1-0.3l15.9-8.5
			c0.5-0.3,0.9-0.8,1.1-1.4c0.2-0.6,0.1-1.2-0.2-1.8l-8.5-15.9c-0.3-0.5-0.8-0.9-1.4-1.1c-0.6-0.2-1.2-0.1-1.7,0.2
			C28.3,65.2,24.6,77.5,29.9,87.4z"/>
		<g>
			<path class="st1" d="M38.2,59.9c0.5-0.3,1.2-0.4,1.7-0.2c0.6,0.2,1.1,0.6,1.4,1.1l8.5,15.9c0.3,0.5,0.4,1.2,0.2,1.8
				c0,0.1-0.1,0.2-0.1,0.2L30.1,67.9C31.9,64.6,34.6,61.8,38.2,59.9z"/>
		</g>
	</g>
	<g>
		<path class="st3" d="M60,30.5c-5.4,0-9.8,4.4-9.8,9.8S54.6,50,60,50c0.1,0,0.2,0,0.2,0V30.5C60.1,30.5,60.1,30.5,60,30.5z"/>
		<path class="st6" d="M69.7,40.3c0-5.3-4.2-9.6-9.5-9.7V50C65.5,49.9,69.7,45.6,69.7,40.3z"/>
	</g>
</g>
</svg>
